<svg xmlns="http://www.w3.org/2000/svg" width="423.053" height="353.412" viewBox="0 0 423.053 353.412">
  <path id="decorationBlob" d="M260.957-69.568C285.739-54.379,291.068-6.68,300.928,31.16c9.86,38.106,23.983,66.619,29.845,98.6,6.129,31.977,4,67.419-14.656,90.069-18.92,22.384-54.095,32.244-84.74,38.106s-56.76,7.461-85.539,12.524c-29.046,4.8-60.757,12.524-81.808,1.332C42.979,260.33,32.32,229.951,3.807,202.5c-28.247-27.447-74.08-51.7-88.2-84.207-13.857-32.51,4-73.015,31.178-102.593C-26.039-13.608,10.2-32,45.377-41.322s69.017-9.593,108.189-18.12C192.472-68.236,236.174-85.024,260.957-69.568Z" transform="translate(89.204 75.862)" fill="#dfab5f"/>
</svg>
